<svg id="Laag_1" data-name="Laag 1" xmlns="http://www.w3.org/2000/svg" xmlns:xlink="http://www.w3.org/1999/xlink" viewBox="0 0 24.04 11.2"><defs><style>.cls-1{fill:#fff;fill-rule:evenodd;}.cls-2{mask:url(#mask);}.cls-3{mask:url(#mask-2);}</style><mask id="mask" x="0" y="2.08" width="24.04" height="9.12" maskUnits="userSpaceOnUse"><g id="C"><path id="A" class="cls-1" d="M0,4.24A6.91,6.91,0,0,1,5.51,7h0a9.11,9.11,0,0,0,.65,1h0A7.85,7.85,0,0,0,9,10.5H9a6.69,6.69,0,0,0,3,.7h0A6.71,6.71,0,0,0,15,10.52h0a7.93,7.93,0,0,0,2.89-2.47h0a9.93,9.93,0,0,0,.65-1h0A6.9,6.9,0,0,1,24,4.3H24V2.14H24a9,9,0,0,0-4.34,1.11h0a9.07,9.07,0,0,0-3.13,2.84h0a5.27,5.27,0,0,0-.4.64h0A5.09,5.09,0,0,1,12,9.05h0A5.07,5.07,0,0,1,7.9,6.71h0c-.12-.23-.26-.44-.4-.66h0A9.14,9.14,0,0,0,4.38,3.21h0A9,9,0,0,0,0,2.08H0Z"/></g></mask><mask id="mask-2" x="8.72" y="0" width="6.27" height="6.82" maskUnits="userSpaceOnUse"><g id="D"><path id="B" class="cls-1" d="M8.72,3.41a3.41,3.41,0,0,0,3.41,3.41h0a3.42,3.42,0,0,0,2.59-1.19h0l.15-.19h0A.89.89,0,0,0,15,5h0a.84.84,0,0,0-.84-.83h0a.84.84,0,0,0-.62.26h0a.39.39,0,0,1-.08.1h0a1.72,1.72,0,0,1-1.32.61h0a1.74,1.74,0,0,1-1.74-1.74h0a1.74,1.74,0,0,1,1.74-1.74h0a1.75,1.75,0,0,1,1.31.59h0l.11.14h0a.85.85,0,0,0,.6.25h0A.85.85,0,0,0,15,1.81h0a.8.8,0,0,0-.14-.45h0l-.1-.14h0A3.44,3.44,0,0,0,12.13,0h0A3.41,3.41,0,0,0,8.72,3.41"/></g></mask></defs><g class="cls-2"><path class="cls-1" d="M0,4.24A6.91,6.91,0,0,1,5.51,7h0a9.11,9.11,0,0,0,.65,1h0A7.85,7.85,0,0,0,9,10.5H9a6.69,6.69,0,0,0,3,.7h0A6.71,6.71,0,0,0,15,10.52h0a7.93,7.93,0,0,0,2.89-2.47h0a9.93,9.93,0,0,0,.65-1h0A6.9,6.9,0,0,1,24,4.3H24V2.14H24a9,9,0,0,0-4.34,1.11h0a9.07,9.07,0,0,0-3.13,2.84h0a5.27,5.27,0,0,0-.4.64h0A5.09,5.09,0,0,1,12,9.05h0A5.07,5.07,0,0,1,7.9,6.71h0c-.12-.23-.26-.44-.4-.66h0A9.14,9.14,0,0,0,4.38,3.21h0A9,9,0,0,0,0,2.08H0Z"/></g><g class="cls-3"><path class="cls-1" d="M8.72,3.41a3.41,3.41,0,0,0,3.41,3.41h0a3.42,3.42,0,0,0,2.59-1.19h0l.15-.19h0A.89.89,0,0,0,15,5h0a.84.84,0,0,0-.84-.83h0a.84.84,0,0,0-.62.26h0a.39.39,0,0,1-.08.1h0a1.72,1.72,0,0,1-1.32.61h0a1.74,1.74,0,0,1-1.74-1.74h0a1.74,1.74,0,0,1,1.74-1.74h0a1.75,1.75,0,0,1,1.31.59h0l.11.14h0a.85.85,0,0,0,.6.25h0A.85.85,0,0,0,15,1.81h0a.8.8,0,0,0-.14-.45h0l-.1-.14h0A3.44,3.44,0,0,0,12.13,0h0A3.41,3.41,0,0,0,8.72,3.41"/></g></svg>