<svg width="21" height="19" viewBox="0 0 21 19" fill="none" xmlns="http://www.w3.org/2000/svg">
<rect width="19" height="17" transform="translate(1 1)" fill="white"/>
<path d="M20 5.63636C20 3.07606 17.7844 1 15.0516 1C13.0091 1 11.2547 2.16012 10.5 3.81582C9.74528 2.16012 7.99094 1 5.94739 1C3.21667 1 1 3.07606 1 5.63636C1 13.0752 10.5 18 10.5 18C10.5 18 20 13.0752 20 5.63636Z" fill="#524DD0" stroke="#524DD0" stroke-linecap="round" stroke-linejoin="round"/>
<path fill-rule="evenodd" clip-rule="evenodd" d="M0 5.63636C0 2.46344 2.72672 0 5.94739 0C7.75894 0 9.40124 0.770471 10.5 2.00693C11.5987 0.770512 13.2407 0 15.0516 0C18.2743 0 21 2.46344 21 5.63636C21 9.78527 18.3634 13.1268 15.923 15.3474C14.685 16.4739 13.4513 17.3545 12.5287 17.9531C12.0665 18.2531 11.6797 18.4839 11.4062 18.641C11.2694 18.7196 11.1608 18.7798 11.0849 18.8211C11.047 18.8418 11.0172 18.8577 10.9963 18.8688L10.9715 18.8819L10.9641 18.8858L10.9617 18.887C10.9614 18.8872 10.9602 18.8878 10.5 18C10.0398 18.8878 10.0395 18.8876 10.0391 18.8875L10.0359 18.8858L10.0285 18.8819L10.0037 18.8688C9.98277 18.8577 9.95303 18.8418 9.9151 18.8211C9.83925 18.7798 9.73057 18.7196 9.59376 18.641C9.32026 18.4839 8.93355 18.2531 8.47128 17.9531C7.54873 17.3545 6.31504 16.4739 5.07699 15.3474C2.63664 13.1268 0 9.78527 0 5.63636ZM10.5 18L10.0391 18.8875C10.3277 19.0371 10.6716 19.0374 10.9602 18.8878L10.5 18ZM10.5 16.8548C10.7395 16.7154 11.0613 16.5212 11.44 16.2754C12.2987 15.7182 13.44 14.9026 14.577 13.8681C16.8866 11.7665 19 8.92624 19 5.63636C19 3.68869 17.2944 2 15.0516 2C13.3864 2 11.9963 2.94425 11.4099 4.23059C11.2474 4.58706 10.8918 4.81582 10.5 4.81582C10.1082 4.81582 9.75257 4.58706 9.59008 4.23059C9.00377 2.94436 7.61367 2 5.94739 2C3.70662 2 2 3.68869 2 5.63636C2 8.92624 4.11336 11.7665 6.42301 13.8681C7.55996 14.9026 8.70127 15.7182 9.55997 16.2754C9.93871 16.5212 10.2605 16.7154 10.5 16.8548Z" fill="#524DD0"/>
</svg>
